<?xml version="1.0" encoding="UTF-8"?>
<svg id="Layer_2" data-name="Layer 2" xmlns="http://www.w3.org/2000/svg" viewBox="0 0 31.57 53.5">
  <defs>
    <style>
      .cls-1 {
        stroke-width: 4px;
      }

      .cls-1, .cls-2 {
        fill: none;
        stroke: #262626;
        stroke-linecap: round;
        stroke-linejoin: round;
      }

      .cls-2 {
        stroke-width: 3px;
      }
    </style>
  </defs>
  <g id="Layer_1-2" data-name="Layer 1">
    <g>
      <path class="cls-1" d="M27.93,22.49c-1.94,4.95-5.18,9.18-9.14,11.03-2.34.99-4.95,1.16-7.73.18-.09-.04-.19-.07-.29-.11-.09-.04-.2-.07-.29-.12-2.93-1.18-4.82-3.1-5.88-5.43-.03-.03-.04-.07-.05-.1-1.73-3.86-1.24-8.82.52-13.47.04-.09.07-.17.11-.25h0c.02-.08.05-.13.07-.19C8.17,6.59,13.86-.51,22.44,2.87c8.32,3.38,8.17,12.15,5.49,19.62Z"/>
      <path class="cls-2" d="M6.07,51.89c-1.46-.37-2.67-.86-3.71-1.41-.6-.23-.97-.74-.82-1.14l3.77-9.93c.15-.4.76-.53,1.37-.31,1.07.91,2.31,1.38,3.71,1.41.6.23.97.74.82,1.14l-3.77,9.93c-.15.4-.76.53-1.37.31Z"/>
      <g>
        <path class="cls-2" d="M10.82,40.68c.11-1.5.8-2.64,1.67-3.51,1.07-1.06,2.19-2.46,3.52-2.9"/>
        <path class="cls-2" d="M6.58,30.93c1,1.37.92,3.03.87,4.74-.03,1.07-.33,2.21-1.14,3.29"/>
      </g>
    </g>
  </g>
</svg>