<?xml version="1.0" encoding="UTF-8"?>
<svg id="Layer_2" data-name="Layer 2" xmlns="http://www.w3.org/2000/svg" viewBox="0 0 22.86 21.97">
  <defs>
    <style>
      .cls-1 {
        fill: #fff;
      }
    </style>
  </defs>
  <g id="Layer_1-2" data-name="Layer 1">
    <path class="cls-1" d="M11.43,2c.11,0,.22.06.26.19l2.04,6.27c.04.11.14.19.26.19h6.6c.27,0,.38.34.16.5l-5.34,3.88c-.1.07-.14.19-.1.31l2.04,6.27c.06.19-.09.36-.26.36-.05,0-.11-.02-.16-.05l-5.34-3.88s-.1-.05-.16-.05-.11.02-.16.05l-5.34,3.88c-.05.04-.11.05-.16.05-.17,0-.32-.17-.26-.36l2.04-6.27c.04-.11,0-.24-.1-.31l-5.34-3.88c-.21-.16-.1-.5.16-.5h6.6c.12,0,.22-.08.26-.19l2.04-6.27c.04-.13.15-.19.26-.19M11.43,0c-.99,0-1.86.63-2.16,1.57l-1.65,5.08H2.27c-.99,0-1.86.63-2.16,1.57-.31.94.03,1.96.83,2.54l4.32,3.14-1.65,5.08c-.22.69-.1,1.45.32,2.04.43.59,1.12.94,1.84.94.48,0,.94-.15,1.33-.43l4.32-3.14,4.32,3.14c.39.28.85.44,1.34.44.73,0,1.42-.35,1.84-.94.42-.59.54-1.35.32-2.04l-1.65-5.08,4.32-3.14c.8-.58,1.13-1.6.83-2.54-.31-.94-1.17-1.57-2.16-1.57h-5.34l-1.65-5.08c-.31-.94-1.18-1.57-2.16-1.57h0Z"/>
  </g>
</svg>