<?xml version="1.0" encoding="UTF-8"?>
<svg id="Layer_2" data-name="Layer 2" xmlns="http://www.w3.org/2000/svg" viewBox="0 0 45 45">
  <defs>
    <style>
      .cls-1 {
        fill: none;
        stroke: #262626;
        stroke-linecap: round;
        stroke-linejoin: round;
        stroke-width: 3px;
      }
    </style>
  </defs>
  <g id="Layer_1-2" data-name="Layer 1">
    <g>
      <path class="cls-1" d="M43.5,22.51c0,4.55-1.45,8.76-3.92,12.2-3.8,5.32-10.04,8.79-17.09,8.79-5.34,0-10.22-1.99-13.92-5.29-1.06-.92-2.03-1.96-2.87-3.09-2.64-3.51-4.2-7.87-4.2-12.61,0-5.26,1.92-10.05,5.11-13.73.92-1.06,1.94-2.03,3.05-2.88,3.55-2.75,8-4.39,12.84-4.39,6.54,0,12.4,3,16.24,7.69,2.98,3.62,4.76,8.25,4.76,13.31Z"/>
      <g>
        <path class="cls-1" d="M16.01,21.53c0,6.62-2.87,12.58-7.44,16.68-1.06-.92-2.03-1.96-2.87-3.09-2.64-3.51-4.2-7.87-4.2-12.61,0-5.26,1.92-10.05,5.11-13.73.92-1.06,1.94-2.03,3.05-2.88,3.94,4.04,6.35,9.56,6.35,15.64Z"/>
        <path class="cls-1" d="M28.99,21.53c0,6.62,2.87,12.58,7.44,16.68,1.06-.92,2.03-1.96,2.87-3.09,2.64-3.51,4.2-7.87,4.2-12.61,0-5.26-1.92-10.05-5.11-13.73-.92-1.06-1.94-2.03-3.05-2.88-3.94,4.04-6.35,9.56-6.35,15.64Z"/>
      </g>
    </g>
  </g>
</svg>