<?xml version="1.0" encoding="UTF-8"?>
<svg id="Layer_2" data-name="Layer 2" xmlns="http://www.w3.org/2000/svg" viewBox="0 0 22 22">
  <defs>
    <style>
      .cls-1 {
        fill: none;
        stroke: #fff;
        stroke-linecap: round;
        stroke-linejoin: round;
        stroke-width: 2px;
      }
    </style>
  </defs>
  <g id="Layer_1-2" data-name="Layer 1">
    <g>
      <polygon class="cls-1" points="11 7.25 7.25 9.97 8.68 14.38 13.32 14.38 14.75 9.97 11 7.25"/>
      <path class="cls-1" d="M21,10.87l-2.53-2.05,1.13-2.94c.87,1.46,1.38,3.17,1.4,4.99Z"/>
      <path class="cls-1" d="M18.47,17.65c-1.06,1.19-2.4,2.13-3.93,2.7l1.09-2.85,2.83.15Z"/>
      <path class="cls-1" d="M7.6,20.4c-1.66-.6-3.12-1.63-4.24-2.95h3.28l.96,2.95Z"/>
      <path class="cls-1" d="M3.6,8.72l-2.59,1.88c.07-1.84.64-3.54,1.58-5l1.01,3.12Z"/>
      <path class="cls-1" d="M13.53,1.32l-2.53,1.84-2.53-1.84c.81-.21,1.65-.32,2.53-.32s1.72.11,2.53.32Z"/>
      <path class="cls-1" d="M21,11c0,2.55-.95,4.88-2.53,6.65-1.06,1.19-2.4,2.13-3.93,2.7-1.1.42-2.3.65-3.54.65s-2.34-.21-3.4-.6c-1.66-.6-3.12-1.63-4.24-2.95-1.47-1.74-2.36-3.99-2.36-6.45,0-.13,0-.27,0-.4.07-1.84.64-3.54,1.58-5,1.34-2.09,3.43-3.64,5.89-4.28.81-.21,1.65-.32,2.53-.32s1.72.11,2.53.32c2.57.67,4.74,2.33,6.07,4.56.87,1.46,1.38,3.17,1.4,4.99,0,.04,0,.09,0,.13Z"/>
      <line class="cls-1" x1="14.75" y1="9.97" x2="18.47" y2="8.83"/>
      <line class="cls-1" x1="13.32" y1="14.38" x2="15.64" y2="17.5"/>
      <line class="cls-1" x1="8.68" y1="14.38" x2="6.64" y2="17.45"/>
      <line class="cls-1" x1="7.25" y1="9.97" x2="3.6" y2="8.72"/>
      <line class="cls-1" x1="11" y1="7.25" x2="11" y2="3.16"/>
    </g>
  </g>
</svg>