<?xml version="1.0" encoding="UTF-8"?>
<svg id="Layer_2" data-name="Layer 2" xmlns="http://www.w3.org/2000/svg" viewBox="0 0 45 45">
  <defs>
    <style>
      .cls-1 {
        fill: none;
        stroke: #262626;
        stroke-linecap: round;
        stroke-linejoin: round;
        stroke-width: 3px;
      }
    </style>
  </defs>
  <g id="Layer_1-2" data-name="Layer 1">
    <g>
      <polygon class="cls-1" points="22.51 13.97 13.93 20.2 17.21 30.28 27.81 30.28 31.08 20.2 22.51 13.97"/>
      <path class="cls-1" d="M26.33,1.85l-3.82,2.78h-.01l-3.82-2.78c1.24-.23,2.51-.35,3.82-.35s2.59.12,3.83.35Z"/>
      <path class="cls-1" d="M43.42,20.7l-3.85-3.11,1.72-4.48c1.17,2.31,1.91,4.88,2.13,7.59Z"/>
      <path class="cls-1" d="M37.06,37.62c-1.61,1.56-3.46,2.85-5.5,3.81l1.54-4.01,3.96.2Z"/>
      <path class="cls-1" d="M13.96,41.68c-2.38-1.05-4.52-2.55-6.33-4.38h4.91l1.42,4.38Z"/>
      <path class="cls-1" d="M5.59,17.34l-3.97,2.88c.3-2.76,1.14-5.36,2.41-7.69l1.56,4.81Z"/>
      <path class="cls-1" d="M43.5,22.5c0,5.36-2,10.25-5.31,13.96-.36.4-.74.79-1.13,1.16l-3.96-.2-1.54,4.01c-.52.26-1.06.49-1.61.7-2.31.89-4.83,1.37-7.45,1.37s-4.91-.45-7.14-1.26c-.48-.17-.94-.36-1.4-.56l-1.42-4.38h-4.91c-.41-.4-.8-.82-1.17-1.26-3.09-3.65-4.96-8.38-4.96-13.54,0-.28.01-.57.02-.85.02-.48.05-.96.1-1.43l3.97-2.88-1.56-4.81c.25-.47.52-.92.81-1.37,2.8-4.39,7.19-7.64,12.36-8.99.49-.13.98-.23,1.48-.32l3.82,2.78h.01l3.82-2.78c.5.09.99.2,1.48.32,5.4,1.41,9.95,4.9,12.74,9.58.26.44.51.9.74,1.36l-1.72,4.48,3.85,3.11c.04.51.06,1.02.07,1.53,0,.09,0,.18,0,.27Z"/>
      <line class="cls-1" x1="31.08" y1="20.2" x2="39.57" y2="17.59"/>
      <line class="cls-1" x1="27.81" y1="30.28" x2="33.1" y2="37.41"/>
      <line class="cls-1" x1="17.21" y1="30.28" x2="12.53" y2="37.3"/>
      <line class="cls-1" x1="13.93" y1="20.2" x2="5.59" y2="17.34"/>
      <line class="cls-1" x1="22.51" y1="13.97" x2="22.51" y2="4.63"/>
    </g>
  </g>
</svg>