<?xml version="1.0" encoding="UTF-8"?>
<svg id="Layer_2" data-name="Layer 2" xmlns="http://www.w3.org/2000/svg" viewBox="0 0 45 45">
  <defs>
    <style>
      .cls-1 {
        fill: none;
        stroke: #262626;
        stroke-linecap: round;
        stroke-linejoin: round;
        stroke-width: 3px;
      }
    </style>
  </defs>
  <g id="Layer_1-2" data-name="Layer 1">
    <g>
      <path class="cls-1" d="M43.5,22.51c0,4.55-1.45,8.76-3.92,12.2-3.8,5.32-10.04,8.79-17.09,8.79s-12.96-3.29-16.79-8.38c-2.64-3.51-4.2-7.87-4.2-12.61,0-5.26,1.92-10.05,5.11-13.73,3.85-4.45,9.54-7.27,15.88-7.27s12.4,3,16.24,7.69c2.98,3.62,4.76,8.25,4.76,13.31Z"/>
      <path class="cls-1" d="M13.41,21.66c0,5.73-3.09,10.75-7.71,13.46-2.64-3.51-4.2-7.87-4.2-12.61,0-5.26,1.92-10.05,5.11-13.73,4.11,2.81,6.8,7.54,6.8,12.89Z"/>
      <path class="cls-1" d="M43.5,22.51c0,4.55-1.45,8.76-3.92,12.2-4.25-2.79-7.05-7.59-7.05-13.05,0-5.09,2.44-9.62,6.21-12.47,2.98,3.62,4.76,8.25,4.76,13.31Z"/>
      <line class="cls-1" x1="1.5" y1="22.5" x2="43.5" y2="22.5"/>
    </g>
  </g>
</svg>