<?xml version="1.0" encoding="UTF-8"?>
<svg id="Layer_2" data-name="Layer 2" xmlns="http://www.w3.org/2000/svg" viewBox="0 0 43.91 44.75">
  <defs>
    <style>
      .cls-1 {
        fill: none;
        stroke: #262626;
        stroke-linecap: round;
        stroke-linejoin: round;
        stroke-width: 3px;
      }

      .cls-2 {
        fill: #262626;
      }
    </style>
  </defs>
  <g id="Layer_1-2" data-name="Layer 1">
    <g>
      <path class="cls-1" d="M16.67,21.18H3.29c-1.08,0-1.92-.94-1.78-2.01C2.19,14.15,5.57,1.5,22.68,1.5c15.53,0,18.96,12.34,19.67,19.06.27,2.51-.36,5.02-1.72,7.14l-1.12,1.74c-.89,1.37-1.38,2.96-1.42,4.6l-.06,2.12c-.03,1.24-.3,2.47-.88,3.56-.9,1.68-2.72,3.54-6.35,3.54-1.98,0-3.57-.57-4.83-1.36-2.59-1.64-4.02-4.61-4.02-7.68v-8.68c.27-2.94-1.65-4.27-5.27-4.36Z"/>
      <circle class="cls-2" cx="30.09" cy="34.99" r="2.99"/>
      <path class="cls-1" d="M8.28,21.18v8.98c0,3.39,2.77,6.13,6.16,6.09,5.51-.05,7.71-.05,7.71-.05"/>
    </g>
  </g>
</svg>