<?xml version="1.0" encoding="UTF-8"?>
<svg id="Layer_2" data-name="Layer 2" xmlns="http://www.w3.org/2000/svg" viewBox="0 0 45 45">
  <defs>
    <style>
      .cls-1 {
        fill: none;
        stroke: #262626;
        stroke-linecap: round;
        stroke-linejoin: round;
        stroke-width: 3px;
      }
    </style>
  </defs>
  <g id="Layer_1-2" data-name="Layer 1">
    <g>
      <path class="cls-1" d="M43.5,22.5c0,5.36-2,10.26-5.31,13.97-2.23,2.5-5.05,4.47-8.24,5.67-2.31.89-4.83,1.36-7.44,1.36s-4.91-.44-7.15-1.25c-3.49-1.25-6.55-3.42-8.9-6.2-3.09-3.66-4.95-8.38-4.95-13.55,0-.28,0-.56.02-.84.15-3.85,1.35-7.44,3.32-10.5,2.81-4.38,7.2-7.64,12.36-8.99,1.7-.44,3.47-.67,5.3-.67s3.61.24,5.31.67c5.4,1.41,9.95,4.9,12.74,9.58,1.83,3.07,2.9,6.65,2.94,10.48,0,.09,0,.18,0,.26Z"/>
      <path class="cls-1" d="M3.52,13.52s6.95,12.17,18.15,9.66c6.1,8.78-1.2,20.23-1.2,20.23"/>
      <path class="cls-1" d="M21.67,23.17s3.81-11.03,20.63-7.69"/>
      <path class="cls-1" d="M1.66,25.11s7.73,11.54,22.14,9.44"/>
      <path class="cls-1" d="M10.01,20.56s5.32-15.88,24.21-15.49"/>
      <path class="cls-1" d="M30.64,15.61s8.32,11.76,1.35,25.63"/>
    </g>
  </g>
</svg>