<svg width="325" height="427" viewBox="0 0 325 427" fill="none" xmlns="http://www.w3.org/2000/svg">
<rect x="0.546875" y="0.546875" width="323" height="425.448" stroke="#9199D6" stroke-width="1.09459"/>
<path d="M218.502 0.0302734C218.502 31.8115 192.765 57.5753 161.018 57.5753C129.27 57.5753 103.533 31.8115 103.533 0.0302734" stroke="#9199D6" stroke-width="1.09459"/>
<rect x="241.547" y="425.77" width="161.276" height="87.1167" transform="rotate(-180 241.547 425.77)" stroke="#9199D6" stroke-width="1.09459"/>
<path d="M142.473 378.615L113.902 378.615L113.902 425.77L209.709 425.77L209.709 378.615L181.331 378.615" stroke="#9199D6" stroke-width="1.09459"/>
<path d="M127.912 338.652C127.912 324.969 143.283 313.876 162.243 313.876C181.204 313.876 196.574 324.969 196.574 338.652" stroke="#9199D6" stroke-width="1.09459"/>
<path d="M308.57 426.546C308.267 421.796 310.839 412.562 323.547 413.631" stroke="#9199D6" stroke-width="1.09459"/>
<path d="M13.527 426.546C13.7892 422.161 11.5603 413.638 0.546875 414.625" stroke="#9199D6" stroke-width="1.09459"/>
<path d="M166.019 1.04688C165.77 3.3001 163.863 5.05176 161.547 5.05176C159.231 5.05176 157.324 3.3001 157.075 1.04688H166.019Z" fill="#9199D6" stroke="#9199D6"/>
</svg>
