<?xml version="1.0" encoding="UTF-8"?>
<svg id="Layer_2" data-name="Layer 2" xmlns="http://www.w3.org/2000/svg" viewBox="0 0 39.62 47.34">
  <defs>
    <style>
      .cls-1 {
        fill: none;
        stroke: #262626;
        stroke-linecap: round;
        stroke-linejoin: round;
        stroke-width: 3px;
      }
    </style>
  </defs>
  <g id="Layer_1-2" data-name="Layer 1">
    <g>
      <path class="cls-1" d="M1.5,5.93C12.97.02,25.17.02,38.12,5.93v20s-5.16,15.66-18.31,19.92C5.24,41.95,1.5,25.93,1.5,25.93V5.93Z"/>
      <path class="cls-1" d="M20.76,12.96l1.53,4.7c.13.41.52.69.95.69h4.94c.97,0,1.37,1.24.59,1.81l-3.99,2.9c-.35.25-.5.71-.36,1.12l1.53,4.7c.3.92-.76,1.69-1.54,1.12l-3.99-2.9c-.35-.25-.83-.25-1.18,0l-3.99,2.9c-.78.57-1.84-.2-1.54-1.12l1.53-4.7c.13-.41-.01-.86-.36-1.12l-3.99-2.9c-.78-.57-.38-1.81.59-1.81h4.94c.43,0,.82-.28.95-.69l1.53-4.7c.3-.92,1.6-.92,1.9,0Z"/>
    </g>
  </g>
</svg>